M48
;DRILL file {Pcbnew (2013-07-07 BZR 4022)-stable} date 25.09.2013 15:15:10
;FORMAT={-:-/ absolute / metric / decimal}
FMAT,2
METRIC,TZ
T1C0.300
T2C0.813
T3C1.016
%
G90
G05
M71
T1
X78.105Y-62.738
X80.137Y-62.738
X80.899Y-55.499
X83.058Y-64.262
X84.201Y-64.008
X84.709Y-60.579
X84.709Y-64.516
X84.709Y-68.58
X86.995Y-62.103
X87.63Y-59.436
X92.837Y-64.516
X93.345Y-63.246
X95.885Y-67.564
X104.013Y-72.771
T2
X55.372Y-47.752
X55.372Y-50.292
X55.372Y-52.832
X55.372Y-65.024
X55.372Y-67.564
X55.372Y-70.104
X55.499Y-56.388
X55.499Y-58.928
X55.499Y-61.468
X58.801Y-75.057
X58.801Y-77.597
X58.801Y-80.137
X61.087Y-37.846
X61.087Y-40.386
X61.087Y-42.926
X70.358Y-45.847
X70.358Y-48.387
X70.993Y-59.309
X70.993Y-64.389
X76.962Y-37.846
X79.502Y-37.846
X82.042Y-37.846
X82.296Y-42.418
X82.931Y-53.213
X84.582Y-37.846
X84.836Y-42.418
X85.471Y-53.213
X89.535Y-50.546
X92.075Y-50.546
X100.076Y-51.689
X100.076Y-54.229
X100.076Y-56.769
X100.076Y-59.309
X100.076Y-61.849
X105.664Y-53.086
X105.664Y-55.626
X108.077Y-38.989
X108.077Y-41.529
X108.077Y-44.069
X109.601Y-75.184
X109.601Y-77.724
X109.601Y-80.264
X113.03Y-48.641
X113.03Y-51.181
X113.03Y-53.721
X113.03Y-57.023
X113.03Y-59.563
X113.03Y-62.103
X113.03Y-65.278
X113.03Y-67.818
X113.03Y-70.358
T3
X97.282Y-72.136
X97.282Y-74.676
X97.282Y-77.216
X97.282Y-79.756
X97.282Y-82.296
X99.822Y-72.136
X99.822Y-74.676
X99.822Y-77.216
X99.822Y-79.756
X99.822Y-82.296
T0
M30
